<?xml version="1.0" standalone="no"?><!DOCTYPE svg PUBLIC "-//W3C//DTD SVG 1.1//EN" "http://www.w3.org/Graphics/SVG/1.1/DTD/svg11.dtd"><svg height="1024" node-id="1" sillyvg="true" template-height="1024" template-width="1024" version="1.1" viewBox="0 0 1024 1024" width="1024" xmlns="http://www.w3.org/2000/svg" xmlns:xlink="http://www.w3.org/1999/xlink"><defs node-id="45"><linearGradient gradientUnits="objectBoundingBox" id="linearGradient-1" node-id="5" spreadMethod="pad" x1="0.5" x2="0.506" y1="-0.0000000000000004440892" y2="0.766"><stop offset="0" stop-color="#f8f8f8" stop-opacity="0.71"></stop><stop offset="1" stop-color="#e2e7f2" stop-opacity="0"></stop></linearGradient><linearGradient gradientUnits="objectBoundingBox" id="linearGradient-2" node-id="8" spreadMethod="pad" x1="0.5" x2="0.5" y1="0" y2="0.6386449"><stop offset="0" stop-color="#2dadad" stop-opacity="0.6203417"></stop><stop offset="1" stop-color="#ffffff"></stop></linearGradient><linearGradient gradientUnits="objectBoundingBox" id="linearGradient-3" node-id="11" spreadMethod="pad" x1="0.5" x2="0.5" y1="0" y2="1"><stop offset="0" stop-color="#eaeef2"></stop><stop offset="1" stop-color="#e1e6ed"></stop></linearGradient><linearGradient gradientUnits="objectBoundingBox" id="linearGradient-4" node-id="14" spreadMethod="pad" x1="0.5" x2="0.5" y1="0" y2="1"><stop offset="0" stop-color="#eaeef2"></stop><stop offset="1" stop-color="#e1e6ed"></stop></linearGradient><linearGradient gradientUnits="objectBoundingBox" id="linearGradient-5" node-id="17" spreadMethod="pad" x1="0.5" x2="0.5" y1="0" y2="1"><stop offset="0" stop-color="#eaeef2"></stop><stop offset="1" stop-color="#e1e6ed"></stop></linearGradient><linearGradient gradientUnits="objectBoundingBox" id="linearGradient-6" node-id="20" spreadMethod="pad" x1="0.034368683" x2="1.480827" y1="0.5" y2="0.5"><stop offset="0" stop-color="#59ddaf"></stop><stop offset="1" stop-color="#26ba84"></stop></linearGradient><linearGradient gradientUnits="objectBoundingBox" id="linearGradient-8" node-id="26" spreadMethod="pad" x1="0.5" x2="0.5" y1="0" y2="1"><stop offset="0" stop-color="#2dadad" stop-opacity="0.6203417"></stop><stop offset="1" stop-color="#ffffff"></stop></linearGradient></defs><g node-id="88"><g node-id="89"><path d="M 0.00 0.00 L 1024.00 0.00 L 1024.00 1024.00 L 0.00 1024.00 Z" fill="#ffffff" fill-opacity="0" fill-rule="nonzero" group-id="1,2" id="矩形_335" node-id="31" stroke="none" target-height="1024" target-width="1024" target-x="0" target-y="0"></path></g><g node-id="90"><g node-id="91"><path d="M 92.78 831.08 L 91.77 826.56 L 89.18 814.17 L 85.65 795.67 L 81.84 772.83 L 80.04 760.43 L 78.39 747.40 L 77.01 734.26 L 75.96 721.15 L 75.32 708.14 L 75.18 695.83 L 75.41 687.69 L 75.93 680.16 L 76.71 673.21 L 77.90 666.31 L 79.41 660.29 L 81.21 655.06 L 82.95 651.24 L 84.89 648.02 L 87.01 645.33 L 89.31 643.12 L 92.63 640.71 L 95.82 638.86 L 98.90 637.51 L 101.90 636.63 L 106.07 635.99 L 110.13 635.98 L 114.11 636.59 L 118.01 637.72 L 121.81 639.29 L 125.54 641.30 L 130.83 644.88 L 135.79 649.01 L 140.39 653.51 L 144.46 658.02 L 148.17 662.58 L 151.14 666.59 L 155.45 672.99 L 156.97 675.51 L 155.83 671.42 L 152.93 660.26 L 149.11 643.70 L 147.13 634.08 L 145.16 623.39 L 143.40 612.41 L 141.90 600.99 L 140.79 589.49 L 140.15 578.17 L 140.04 570.63 L 140.24 563.44 L 140.72 556.59 L 141.59 549.77 L 142.84 543.56 L 144.43 537.90 L 145.99 533.74 L 147.79 530.03 L 149.82 526.72 L 152.08 523.78 L 154.69 521.15 L 157.61 518.97 L 160.86 517.21 L 164.49 515.88 L 168.29 515.13 L 171.95 514.93 L 175.53 515.28 L 179.06 516.16 L 182.45 517.49 L 185.81 519.26 L 189.18 521.49 L 192.56 524.23 L 196.69 528.24 L 200.79 532.89 L 204.88 538.26 L 208.64 543.86 L 212.32 549.90 L 215.91 556.40 L 220.89 566.40 L 225.54 576.81 L 229.83 587.35 L 233.67 597.64 L 237.19 607.80 L 240.18 617.05 L 244.97 633.19 L 247.92 644.23 L 248.93 648.32 L 248.47 644.24 L 247.66 633.39 L 247.39 626.32 L 247.36 617.90 L 247.66 609.17 L 248.43 599.87 L 249.24 593.64 L 250.35 587.49 L 251.75 581.41 L 253.52 575.45 L 255.66 569.87 L 258.17 564.64 L 260.38 560.90 L 262.85 557.50 L 265.57 554.43 L 268.55 551.67 L 271.81 549.28 L 275.41 547.31 L 279.38 545.75 L 283.77 544.60 L 287.31 544.29 L 290.86 544.61 L 294.47 545.58 L 298.20 547.26 L 301.63 549.35 L 305.17 551.99 L 308.81 555.24 L 312.57 559.16 L 317.15 564.61 L 321.81 570.89 L 326.56 578.07 L 330.99 585.42 L 335.41 593.30 L 339.80 601.74 L 346.01 614.62 L 351.95 627.93 L 357.55 641.36 L 362.67 654.40 L 367.46 667.24 L 371.62 678.89 L 378.43 699.16 L 382.77 712.97 L 384.30 718.07 L 92.78 831.08 Z" fill="url(#linearGradient-1)" fill-rule="nonzero" group-id="1,3,4" id="路径_63" node-id="33" stroke="none" target-height="316.1515" target-width="309.11807" target-x="75.18005" target-y="514.932"></path></g><g node-id="92"><path d="M 1002.00 809.00 L 1001.74 813.35 L 1000.98 817.68 L 999.71 822.04 L 997.90 826.44 L 995.51 830.91 L 992.50 835.46 L 988.64 840.30 L 984.02 845.24 L 978.54 850.27 L 972.14 855.41 L 964.70 860.66 L 957.48 865.22 L 949.43 869.83 L 940.49 874.48 L 930.60 879.17 L 919.67 883.90 L 906.44 889.10 L 891.90 894.27 L 875.94 899.39 L 858.48 904.46 L 840.02 909.29 L 820.43 913.90 L 799.64 918.29 L 778.80 922.23 L 757.01 925.91 L 734.25 929.31 L 711.46 932.31 L 687.93 935.00 L 663.64 937.37 L 639.33 939.36 L 614.49 941.01 L 589.12 942.32 L 563.73 943.25 L 538.03 943.81 L 512.00 944.00 L 485.97 943.81 L 460.27 943.25 L 434.88 942.32 L 409.51 941.01 L 384.67 939.36 L 360.36 937.37 L 336.07 935.00 L 312.54 932.31 L 289.75 929.31 L 266.99 925.91 L 245.20 922.23 L 224.36 918.29 L 203.57 913.90 L 183.98 909.29 L 165.52 904.46 L 148.06 899.39 L 132.10 894.27 L 117.56 889.10 L 104.33 883.90 L 93.40 879.17 L 83.51 874.48 L 74.57 869.83 L 66.52 865.22 L 59.30 860.66 L 51.86 855.41 L 45.46 850.27 L 39.98 845.24 L 35.36 840.30 L 31.50 835.46 L 28.49 830.91 L 26.10 826.44 L 24.29 822.04 L 23.02 817.68 L 22.26 813.35 L 22.00 809.00 L 22.26 804.65 L 23.02 800.32 L 24.29 795.96 L 26.10 791.56 L 28.49 787.09 L 31.50 782.54 L 35.36 777.70 L 39.98 772.76 L 45.46 767.73 L 51.86 762.59 L 59.30 757.34 L 66.52 752.78 L 74.56 748.17 L 83.51 743.52 L 93.40 738.83 L 104.33 734.10 L 117.56 728.90 L 132.10 723.73 L 148.06 718.61 L 165.52 713.54 L 183.98 708.71 L 203.57 704.10 L 224.36 699.71 L 245.20 695.77 L 266.99 692.09 L 289.75 688.69 L 312.54 685.69 L 336.07 683.00 L 360.36 680.63 L 384.67 678.64 L 409.51 676.99 L 434.88 675.68 L 460.27 674.75 L 485.97 674.19 L 512.00 674.00 L 538.03 674.19 L 563.73 674.75 L 589.12 675.68 L 614.49 676.99 L 639.33 678.64 L 663.64 680.63 L 687.93 683.00 L 711.46 685.69 L 734.25 688.69 L 757.01 692.09 L 778.80 695.77 L 799.64 699.71 L 820.43 704.10 L 840.02 708.71 L 858.48 713.54 L 875.94 718.61 L 891.90 723.73 L 906.44 728.90 L 919.67 734.10 L 930.60 738.83 L 940.49 743.52 L 949.43 748.17 L 957.48 752.78 L 964.70 757.34 L 972.14 762.59 L 978.54 767.73 L 984.02 772.76 L 988.64 777.70 L 992.50 782.54 L 995.51 787.09 L 997.90 791.56 L 999.71 795.96 L 1000.98 800.32 L 1001.74 804.65 L 1002.00 809.00 Z" fill="url(#linearGradient-2)" fill-opacity="0.061778482" fill-rule="nonzero" group-id="1,3,5" id="椭圆_16" node-id="34" stroke="none" target-height="270" target-width="980" target-x="22" target-y="674"></path></g><g node-id="93"><g node-id="96"><path d="M 774.14 571.30 L 708.43 605.84 L 707.66 606.07 L 706.91 605.98 L 706.24 605.62 L 705.73 605.00 L 705.53 604.39 L 705.53 603.74 L 718.08 530.57 L 718.01 529.62 L 717.50 528.80 L 664.35 476.99 L 663.90 476.33 L 663.75 475.58 L 663.88 474.84 L 664.31 474.16 L 664.84 473.78 L 665.46 473.58 L 738.92 462.91 L 739.80 462.54 L 740.42 461.81 L 773.27 395.25 L 773.76 394.61 L 774.42 394.24 L 775.18 394.13 L 775.95 394.34 L 776.48 394.72 L 776.86 395.25 L 809.71 461.81 L 810.33 462.54 L 811.22 462.91 L 884.68 473.58 L 885.43 473.85 L 885.99 474.36 L 886.32 475.05 L 886.37 475.85 L 886.17 476.47 L 885.78 476.99 L 832.63 528.80 L 832.12 529.62 L 832.05 530.57 L 844.60 603.74 L 844.58 604.54 L 844.26 605.23 L 843.72 605.76 L 842.97 606.05 L 842.32 606.05 L 841.70 605.84 L 776.00 571.30 L 775.07 571.07 L 774.14 571.30 Z" fill="url(#linearGradient-3)" fill-opacity="0.3183274" fill-rule="nonzero" group-id="1,3,6,9" id="星形" node-id="36" stroke="none" target-height="211.9336" target-width="222.62231" target-x="663.74524" target-y="394.13428"></path></g><path d="M 530.94 667.30 L 382.47 745.35 L 381.70 745.58 L 380.95 745.49 L 380.28 745.13 L 379.77 744.51 L 379.57 743.90 L 379.57 743.25 L 407.92 577.93 L 407.86 576.97 L 407.35 576.16 L 287.24 459.08 L 286.79 458.42 L 286.64 457.67 L 286.77 456.93 L 287.20 456.25 L 287.73 455.87 L 288.35 455.67 L 454.34 431.55 L 455.22 431.19 L 455.84 430.46 L 530.07 280.05 L 530.56 279.41 L 531.22 279.04 L 531.98 278.93 L 532.75 279.14 L 533.28 279.52 L 533.66 280.05 L 607.89 430.46 L 608.51 431.19 L 609.40 431.55 L 775.38 455.67 L 776.14 455.94 L 776.70 456.45 L 777.03 457.14 L 777.08 457.94 L 776.88 458.56 L 776.49 459.08 L 656.38 576.16 L 655.88 576.97 L 655.81 577.93 L 684.16 743.25 L 684.14 744.05 L 683.82 744.74 L 683.28 745.26 L 682.53 745.55 L 681.88 745.56 L 681.26 745.35 L 532.80 667.30 L 531.87 667.07 L 530.94 667.30 Z" fill="url(#linearGradient-3)" fill-rule="nonzero" group-id="1,3,6" id="星形" node-id="37" stroke="none" target-height="466.6431" target-width="490.43985" target-x="286.63644" target-y="278.9343"></path></g><g node-id="94"><path d="M 225.03 600.86 L 225.72 599.75 L 226.65 598.88 L 227.76 598.26 L 229.03 597.94 L 230.33 597.94 L 231.56 598.27 L 232.67 598.90 L 233.61 599.80 L 243.60 612.32 L 244.57 613.24 L 245.68 613.86 L 246.98 614.19 L 262.89 616.02 L 264.16 616.33 L 265.28 616.94 L 266.21 617.81 L 266.91 618.91 L 267.30 620.16 L 267.37 621.43 L 267.12 622.68 L 266.54 623.85 L 257.72 637.20 L 257.13 638.40 L 256.89 639.66 L 256.98 641.00 L 260.15 656.67 L 260.24 657.97 L 260.01 659.23 L 259.47 660.38 L 258.64 661.39 L 257.58 662.15 L 256.39 662.60 L 255.12 662.75 L 253.83 662.57 L 238.39 658.31 L 237.06 658.13 L 235.79 658.28 L 234.55 658.78 L 220.59 666.65 L 219.38 667.14 L 218.12 667.30 L 216.86 667.14 L 215.64 666.66 L 214.59 665.89 L 213.79 664.90 L 213.26 663.74 L 213.04 662.46 L 212.33 646.48 L 212.09 645.16 L 211.55 644.00 L 210.69 642.97 L 198.90 632.16 L 198.06 631.16 L 197.51 630.01 L 197.27 628.76 L 197.35 627.46 L 197.76 626.22 L 198.46 625.15 L 199.40 624.29 L 200.55 623.68 L 215.54 618.06 L 216.72 617.42 L 217.66 616.55 L 218.37 615.42 L 225.03 600.86 Z" fill="url(#linearGradient-4)" fill-rule="nonzero" group-id="1,3,7" id="路径_96" node-id="38" stroke="none" target-height="69.36432" target-width="70.10065" target-x="197.26843" target-y="597.9355"></path></g><g node-id="95"><path d="M 331.05 779.50 L 331.64 777.80 L 332.60 776.35 L 333.90 775.18 L 335.49 774.36 L 337.24 773.97 L 338.98 774.03 L 340.66 774.52 L 342.19 775.44 L 359.40 789.09 L 360.55 789.83 L 361.80 790.33 L 363.13 790.57 L 364.50 790.55 L 386.33 788.09 L 388.12 788.11 L 389.80 788.58 L 391.32 789.46 L 392.59 790.71 L 393.50 792.26 L 393.99 793.94 L 394.03 795.69 L 393.63 797.43 L 385.95 817.99 L 385.60 819.31 L 385.52 820.66 L 385.69 822.00 L 386.14 823.30 L 395.21 843.27 L 395.74 844.98 L 395.81 846.73 L 395.45 848.44 L 394.65 850.04 L 393.46 851.38 L 392.01 852.36 L 390.37 852.95 L 388.59 853.10 L 366.62 852.17 L 365.26 852.25 L 363.95 852.58 L 362.74 853.17 L 361.64 853.98 L 345.41 868.81 L 343.94 869.83 L 342.31 870.44 L 340.57 870.63 L 338.80 870.36 L 337.16 869.65 L 335.78 868.57 L 334.71 867.18 L 334.02 865.54 L 328.14 844.40 L 327.64 843.12 L 326.92 841.98 L 325.98 841.00 L 324.86 840.21 L 305.77 829.40 L 304.34 828.32 L 303.26 826.95 L 302.54 825.35 L 302.25 823.59 L 302.42 821.81 L 303.02 820.16 L 304.01 818.72 L 305.36 817.55 L 323.67 805.41 L 324.73 804.54 L 325.59 803.50 L 326.23 802.32 L 326.64 801.01 L 331.05 779.50 Z" fill="url(#linearGradient-5)" fill-rule="nonzero" group-id="1,3,8" id="路径_97" node-id="39" stroke="none" target-height="96.6582" target-width="93.55859" target-x="302.252" target-y="773.9678"></path></g><path d="M 736.96 690.79 L 736.70 696.82 L 736.00 702.63 L 734.85 708.26 L 733.26 713.72 L 731.24 719.06 L 728.85 724.15 L 726.10 729.00 L 722.97 733.63 L 719.49 738.01 L 715.72 742.08 L 711.65 745.85 L 707.26 749.33 L 702.63 752.46 L 697.78 755.22 L 692.70 757.61 L 687.35 759.63 L 681.89 761.22 L 676.26 762.37 L 670.45 763.07 L 664.43 763.33 L 658.40 763.07 L 652.59 762.37 L 646.96 761.22 L 641.50 759.63 L 636.16 757.61 L 631.07 755.22 L 626.22 752.46 L 621.59 749.33 L 617.21 745.85 L 613.14 742.08 L 609.37 738.01 L 605.89 733.63 L 602.76 729.00 L 600.00 724.15 L 597.61 719.06 L 595.59 713.72 L 594.00 708.26 L 592.85 702.63 L 592.15 696.82 L 591.89 690.79 L 592.15 684.77 L 592.85 678.96 L 594.00 673.33 L 595.59 667.87 L 597.61 662.53 L 600.00 657.44 L 602.76 652.59 L 605.89 647.96 L 609.37 643.58 L 613.14 639.51 L 617.21 635.74 L 621.59 632.26 L 626.22 629.13 L 631.07 626.37 L 636.16 623.98 L 641.50 621.96 L 646.96 620.37 L 652.59 619.22 L 658.40 618.52 L 664.43 618.26 L 670.45 618.52 L 676.26 619.22 L 681.89 620.37 L 687.35 621.96 L 692.70 623.98 L 697.78 626.37 L 702.63 629.13 L 707.26 632.26 L 711.65 635.74 L 715.72 639.51 L 719.49 643.58 L 722.96 647.96 L 726.10 652.59 L 728.85 657.44 L 731.24 662.53 L 733.26 667.87 L 734.85 673.33 L 736.00 678.96 L 736.70 684.77 L 736.96 690.79 Z" fill="url(#linearGradient-6)" fill-rule="nonzero" group-id="1,3" id="椭圆_41" node-id="40" stroke="none" target-height="145.06665" target-width="145.06665" target-x="591.893" target-y="618.261"></path><path d="M 654.36 720.51 L 654.36 701.64 L 635.48 701.64 L 633.70 701.47 L 632.07 701.03 L 630.55 700.31 L 628.58 698.78 L 627.05 696.80 L 626.33 695.29 L 625.88 693.66 L 625.72 691.88 L 625.88 690.09 L 626.33 688.46 L 627.05 686.95 L 628.58 684.97 L 630.55 683.45 L 632.07 682.72 L 633.70 682.28 L 635.48 682.11 L 654.36 682.11 L 654.36 663.24 L 654.52 661.46 L 654.97 659.82 L 655.69 658.31 L 657.22 656.34 L 659.19 654.81 L 660.70 654.09 L 662.34 653.64 L 664.12 653.48 L 665.90 653.64 L 667.53 654.09 L 669.05 654.81 L 671.02 656.34 L 672.55 658.31 L 673.27 659.82 L 673.72 661.46 L 673.88 663.24 L 673.88 682.11 L 692.76 682.11 L 694.54 682.28 L 696.17 682.72 L 697.68 683.45 L 699.66 684.97 L 701.19 686.95 L 701.91 688.46 L 702.35 690.09 L 702.52 691.88 L 702.35 693.66 L 701.91 695.29 L 701.19 696.80 L 699.66 698.78 L 697.68 700.31 L 696.17 701.03 L 694.54 701.47 L 692.76 701.64 L 673.88 701.64 L 673.88 720.51 L 673.72 722.30 L 673.27 723.93 L 672.55 725.44 L 671.02 727.42 L 669.05 728.94 L 667.53 729.66 L 665.90 730.11 L 664.12 730.28 L 662.34 730.11 L 660.70 729.66 L 659.19 728.94 L 657.21 727.42 L 655.69 725.44 L 654.97 723.93 L 654.52 722.30 L 654.36 720.51 Z" fill="#ffffff" fill-rule="nonzero" group-id="1,3" id="联合_40" node-id="41" stroke="none" target-height="76.79999" target-width="76.79999" target-x="625.719" target-y="653.476"></path><path d="M 634.26 321.21 L 628.58 320.88 L 623.09 320.14 L 617.79 318.98 L 612.65 317.41 L 607.62 315.44 L 602.84 313.13 L 598.28 310.47 L 593.93 307.47 L 589.82 304.14 L 586.00 300.55 L 582.46 296.67 L 579.20 292.51 L 576.27 288.11 L 573.69 283.51 L 571.45 278.69 L 569.56 273.63 L 568.07 268.47 L 567.00 263.15 L 566.34 257.65 L 566.10 251.96 L 566.34 246.28 L 567.00 240.78 L 568.07 235.46 L 569.56 230.30 L 571.45 225.24 L 573.69 220.42 L 576.27 215.82 L 579.20 211.42 L 582.46 207.26 L 586.00 203.38 L 589.82 199.79 L 593.93 196.46 L 598.28 193.46 L 602.84 190.80 L 607.62 188.49 L 612.65 186.52 L 617.79 184.95 L 623.09 183.79 L 628.58 183.05 L 634.26 182.72 L 640.77 183.03 L 647.20 183.96 L 653.51 185.50 L 659.66 187.65 L 659.47 182.72 L 659.65 177.19 L 660.30 171.81 L 661.41 166.58 L 662.98 161.46 L 664.99 156.49 L 667.40 151.76 L 670.21 147.26 L 673.44 142.98 L 677.02 139.00 L 680.93 135.35 L 685.20 132.03 L 689.85 129.02 L 694.76 126.45 L 699.76 124.37 L 704.86 122.76 L 710.09 121.61 L 715.41 120.91 L 720.70 120.68 L 726.00 120.91 L 731.32 121.61 L 736.55 122.76 L 741.65 124.37 L 746.65 126.45 L 751.56 129.02 L 756.21 132.03 L 760.48 135.35 L 764.39 139.00 L 767.97 142.98 L 771.20 147.26 L 774.01 151.76 L 776.42 156.49 L 778.43 161.46 L 780.00 166.58 L 781.11 171.81 L 781.76 177.19 L 781.94 182.72 L 781.66 188.72 L 780.81 194.65 L 779.39 200.46 L 777.42 206.14 L 782.29 203.46 L 787.34 201.27 L 792.58 199.54 L 797.95 198.29 L 803.40 197.55 L 808.96 197.30 L 814.06 197.57 L 818.99 198.21 L 823.75 199.23 L 828.38 200.62 L 832.90 202.37 L 837.20 204.43 L 841.30 206.80 L 845.21 209.48 L 850.09 213.50 L 854.50 217.96 L 858.47 222.88 L 861.11 226.82 L 863.43 230.94 L 865.44 235.27 L 867.15 239.80 L 868.49 244.44 L 869.46 249.22 L 870.05 254.15 L 870.26 259.26 L 870.05 264.36 L 869.46 269.29 L 868.49 274.07 L 867.15 278.71 L 865.44 283.24 L 863.43 287.57 L 861.11 291.69 L 858.47 295.63 L 854.50 300.55 L 850.09 305.01 L 845.21 309.03 L 841.30 311.71 L 837.20 314.08 L 832.90 316.14 L 828.38 317.89 L 823.75 319.28 L 818.99 320.30 L 814.06 320.94 L 808.96 321.21 L 634.26 321.21 Z" fill="none" group-id="1,3" id="联合_58" node-id="42" stroke="none" target-height="200.53333" target-width="304.16614" target-x="566.0985" target-y="120.67932"></path><path d="M 180.53 276.00 L 176.85 275.74 L 173.39 275.02 L 170.11 273.86 L 167.01 272.26 L 164.18 270.32 L 161.61 268.01 L 159.34 265.39 L 157.44 262.50 L 155.87 259.33 L 154.73 255.99 L 154.02 252.46 L 153.77 248.71 L 154.02 244.96 L 154.73 241.43 L 155.87 238.09 L 157.44 234.91 L 159.34 232.03 L 161.61 229.41 L 164.18 227.10 L 167.01 225.15 L 170.11 223.56 L 173.39 222.39 L 176.85 221.68 L 180.53 221.42 L 183.93 221.64 L 187.23 222.28 L 190.46 223.36 L 190.38 221.42 L 190.50 218.53 L 190.95 215.76 L 191.72 213.06 L 192.79 210.48 L 194.15 208.06 L 195.79 205.79 L 197.68 203.73 L 199.82 201.90 L 202.22 200.29 L 204.79 198.99 L 207.43 198.02 L 210.16 197.37 L 212.94 197.05 L 215.71 197.05 L 218.49 197.37 L 221.22 198.02 L 223.86 198.99 L 226.43 200.29 L 228.83 201.90 L 230.96 203.73 L 232.86 205.79 L 234.50 208.06 L 235.86 210.48 L 236.93 213.06 L 237.70 215.76 L 238.15 218.53 L 238.26 221.42 L 238.07 224.57 L 237.48 227.64 L 236.50 230.65 L 239.38 229.14 L 242.42 228.05 L 245.58 227.39 L 248.83 227.16 L 252.13 227.46 L 255.24 228.15 L 258.17 229.22 L 260.95 230.67 L 263.48 232.42 L 265.78 234.49 L 267.80 236.83 L 269.50 239.39 L 270.89 242.20 L 271.91 245.16 L 272.53 248.27 L 272.76 251.58 L 272.53 254.89 L 271.91 258.01 L 270.89 260.97 L 269.50 263.78 L 267.80 266.34 L 265.78 268.68 L 263.48 270.74 L 260.95 272.49 L 258.17 273.94 L 255.24 275.02 L 252.13 275.71 L 248.83 276.00 L 180.53 276.00 Z" fill="url(#linearGradient-8)" fill-opacity="0.2" fill-rule="nonzero" group-id="1,3" id="联合_59" node-id="43" stroke="none" target-height="78.95082" target-width="118.98784" target-x="153.769" target-y="197.04918"></path></g></g></svg>