<?xml version="1.0" standalone="no"?><!DOCTYPE svg PUBLIC "-//W3C//DTD SVG 1.1//EN" "http://www.w3.org/Graphics/SVG/1.1/DTD/svg11.dtd"><svg height="1024" node-id="1" sillyvg="true" template-height="1024" template-width="1024" version="1.1" viewBox="0 0 1024 1024" width="1024" xmlns="http://www.w3.org/2000/svg" xmlns:xlink="http://www.w3.org/1999/xlink"><defs node-id="49"><linearGradient gradientUnits="objectBoundingBox" id="linearGradient-2" node-id="8" spreadMethod="pad" x1="0.5" x2="0.506" y1="0.0000000000000012767565" y2="0.766"><stop offset="0" stop-color="#f8f8f8" stop-opacity="0.71"></stop><stop offset="1" stop-color="#e2e7f2" stop-opacity="0"></stop></linearGradient><linearGradient gradientUnits="objectBoundingBox" id="linearGradient-3" node-id="11" spreadMethod="pad" x1="0.5" x2="0.5" y1="0" y2="0.6386449"><stop offset="0" stop-color="#2dadad" stop-opacity="0.6203417"></stop><stop offset="1" stop-color="#ffffff"></stop></linearGradient><linearGradient gradientUnits="objectBoundingBox" id="linearGradient-4" node-id="14" spreadMethod="pad" x1="0.5" x2="0.5" y1="0" y2="1"><stop offset="0" stop-color="#2dadad" stop-opacity="0.6203417"></stop><stop offset="1" stop-color="#ffffff"></stop></linearGradient><linearGradient gradientUnits="objectBoundingBox" id="linearGradient-5" node-id="17" spreadMethod="pad" x1="0.5" x2="0.5" y1="0" y2="1"><stop offset="0" stop-color="#2dadad" stop-opacity="0.6203417"></stop><stop offset="1" stop-color="#ffffff"></stop></linearGradient><linearGradient gradientUnits="objectBoundingBox" id="linearGradient-6" node-id="20" spreadMethod="pad" x1="0.5" x2="0.5" y1="0" y2="1"><stop offset="0" stop-color="#eaeef2"></stop><stop offset="1" stop-color="#e1e6ed"></stop></linearGradient><linearGradient gradientUnits="objectBoundingBox" id="linearGradient-7" node-id="23" spreadMethod="pad" x1="0.5" x2="0.5" y1="0" y2="1"><stop offset="0" stop-color="#eaeef2"></stop><stop offset="1" stop-color="#e1e6ed"></stop></linearGradient><linearGradient gradientUnits="objectBoundingBox" id="linearGradient-8" node-id="26" spreadMethod="pad" x1="0.5" x2="0.5" y1="0" y2="1"><stop offset="0" stop-color="#59ddaf"></stop><stop offset="1" stop-color="#26ba84"></stop></linearGradient><linearGradient gradientUnits="objectBoundingBox" id="linearGradient-9" node-id="29" spreadMethod="pad" x1="0.5" x2="0.5" y1="0" y2="1"><stop offset="0" stop-color="#2dadad" stop-opacity="0.6203417"></stop><stop offset="1" stop-color="#ffffff"></stop></linearGradient></defs><g node-id="98"><g node-id="99"><path d="M 0.00 0.00 L 1024.00 0.00 L 1024.00 1024.00 L 0.00 1024.00 Z" fill="#ffffff" fill-opacity="0" fill-rule="nonzero" group-id="1,2" id="矩形_315" node-id="34" stroke="none" target-height="1024" target-width="1024" target-x="0" target-y="0"></path></g><g node-id="100"><path d="M 609.15 342.69 C 567.31 342.03 533.74 307.92 533.74 266.08 C 533.74 224.23 567.31 190.13 609.15 189.47 C 618.78 189.46 628.32 191.31 637.25 194.92 C 637.11 193.12 637.04 191.30 637.04 189.47 C 636.72 165.05 649.57 142.35 670.66 130.05 C 691.75 117.75 717.83 117.75 738.93 130.05 C 760.02 142.35 772.86 165.05 772.55 189.47 C 772.56 198.35 770.86 207.14 767.54 215.38 C 778.05 208.97 790.13 205.58 802.44 205.60 C 840.01 205.99 870.26 236.57 870.26 274.15 C 870.26 311.72 840.01 342.30 802.44 342.69 L 609.15 342.69 Z" fill="none" group-id="1,3" id="联合_62" node-id="35" stroke="none" target-height="224.94182" target-width="336.52423" target-x="533.7404" target-y="117.75218"></path></g><g node-id="101"><path d="M 66.42 779.08 L 65.42 774.56 L 62.82 762.17 L 59.30 743.67 L 55.49 720.83 L 53.69 708.43 L 52.04 695.40 L 50.65 682.26 L 49.60 669.15 L 48.96 656.14 L 48.83 643.83 L 49.06 635.69 L 49.58 628.16 L 50.36 621.21 L 51.55 614.31 L 53.06 608.29 L 54.86 603.06 L 56.60 599.24 L 58.54 596.02 L 60.66 593.33 L 62.96 591.12 L 66.27 588.71 L 69.47 586.86 L 72.55 585.51 L 75.55 584.63 L 79.72 583.99 L 83.78 583.98 L 87.76 584.59 L 91.65 585.72 L 95.46 587.29 L 99.19 589.30 L 104.48 592.88 L 109.44 597.01 L 114.03 601.51 L 118.11 606.02 L 121.81 610.58 L 124.79 614.59 L 129.10 620.99 L 130.62 623.51 L 129.48 619.42 L 126.58 608.26 L 122.75 591.70 L 120.78 582.08 L 118.81 571.39 L 117.05 560.41 L 115.55 548.99 L 114.43 537.49 L 113.80 526.17 L 113.69 518.63 L 113.88 511.44 L 114.37 504.59 L 115.24 497.77 L 116.49 491.56 L 118.08 485.90 L 119.63 481.74 L 121.43 478.03 L 123.47 474.72 L 125.73 471.78 L 128.34 469.15 L 131.26 466.97 L 134.51 465.21 L 138.14 463.88 L 141.93 463.13 L 145.60 462.93 L 149.18 463.28 L 152.71 464.16 L 156.09 465.49 L 159.46 467.26 L 162.83 469.49 L 166.20 472.23 L 170.34 476.24 L 174.44 480.89 L 178.52 486.26 L 182.29 491.86 L 185.97 497.90 L 189.56 504.40 L 194.54 514.40 L 199.19 524.81 L 203.47 535.35 L 207.32 545.64 L 210.84 555.80 L 213.83 565.05 L 218.62 581.19 L 221.57 592.23 L 222.58 596.32 L 222.12 592.24 L 221.30 581.39 L 221.04 574.32 L 221.00 565.90 L 221.31 557.17 L 222.08 547.87 L 222.89 541.64 L 224.00 535.49 L 225.40 529.41 L 227.17 523.45 L 229.31 517.87 L 231.82 512.64 L 234.03 508.90 L 236.50 505.50 L 239.22 502.43 L 242.20 499.67 L 245.46 497.28 L 249.06 495.31 L 253.03 493.75 L 257.42 492.60 L 260.96 492.29 L 264.50 492.61 L 268.12 493.58 L 271.84 495.26 L 275.28 497.35 L 278.82 499.99 L 282.46 503.24 L 286.22 507.16 L 290.79 512.61 L 295.45 518.89 L 300.20 526.07 L 304.64 533.42 L 309.06 541.30 L 313.45 549.74 L 319.66 562.62 L 325.60 575.93 L 331.20 589.36 L 336.32 602.40 L 341.11 615.24 L 345.26 626.89 L 352.08 647.16 L 356.42 660.97 L 357.95 666.07 L 66.42 779.08 Z" fill="url(#linearGradient-2)" fill-rule="nonzero" group-id="1,4" id="路径_63" node-id="36" stroke="none" target-height="316.15152" target-width="309.1181" target-x="48.82805" target-y="462.93204"></path></g><g node-id="102"><path d="M 1002.00 809.00 C 1002.00 844.80 950.38 879.14 858.48 904.46 C 766.59 929.78 641.96 944.00 512.00 944.00 C 382.04 944.00 257.41 929.78 165.52 904.46 C 73.62 879.14 22.00 844.80 22.00 809.00 C 22.00 773.20 73.62 738.86 165.52 713.54 C 257.41 688.22 382.04 674.00 512.00 674.00 C 641.96 674.00 766.59 688.22 858.48 713.54 C 950.38 738.86 1002.00 773.20 1002.00 809.00 Z" fill="url(#linearGradient-3)" fill-opacity="0.061778482" fill-rule="nonzero" group-id="1,5" id="椭圆_16" node-id="37" stroke="none" target-height="270" target-width="980" target-x="22" target-y="674"></path></g><g node-id="103"><path d="M 200.02 648.65 L 201.26 651.57 L 204.97 658.94 L 207.65 663.53 L 211.11 668.74 L 215.03 673.87 L 219.62 678.92 L 222.97 682.06 L 226.58 684.89 L 230.47 687.44 L 234.57 689.56 L 238.94 691.16 L 243.61 692.25 L 247.14 692.64 L 250.86 692.63 L 254.81 692.20 L 259.00 691.31 L 262.96 690.04 L 267.19 688.21 L 271.72 685.74 L 276.60 682.57 L 282.88 679.62 L 288.33 677.48 L 293.05 676.04 L 297.89 674.97 L 302.02 674.42 L 305.54 674.30 L 309.07 674.55 L 312.03 675.05 L 314.50 675.77 L 317.93 677.26 L 320.37 678.81 L 322.39 680.52 L 323.58 681.81 L 324.55 683.17 L 323.50 681.63 L 322.24 680.13 L 320.17 678.07 L 317.68 676.11 L 314.32 674.09 L 311.87 672.98 L 309.01 672.03 L 305.70 671.28 L 302.33 670.87 L 298.48 670.84 L 294.06 671.23 L 289.72 672.03 L 284.79 673.43 L 279.17 675.53 L 275.72 669.72 L 272.27 664.71 L 268.84 660.44 L 265.41 656.83 L 261.58 653.40 L 257.82 650.53 L 254.12 648.18 L 250.46 646.30 L 245.30 644.24 L 240.33 642.82 L 235.52 642.00 L 230.63 641.63 L 226.07 641.65 L 221.80 642.02 L 215.60 643.08 L 210.50 644.42 L 205.90 646.00 L 202.84 647.27 L 200.02 648.65 Z" fill="url(#linearGradient-4)" fill-opacity="0.2" fill-rule="nonzero" group-id="1,6" id="路径_72" node-id="38" stroke="none" target-height="51.007935" target-width="124.53558" target-x="200.0167" target-y="641.6327"></path></g><g node-id="104"><path d="M 88.47 463.63 L 89.19 465.79 L 91.42 471.12 L 93.10 474.36 L 95.29 477.93 L 97.85 481.34 L 100.89 484.53 L 103.16 486.40 L 105.64 487.96 L 108.34 489.23 L 111.19 490.08 L 114.31 490.46 L 117.76 490.33 L 121.16 489.68 L 124.96 488.33 L 129.26 486.15 L 133.62 484.59 L 137.26 483.60 L 140.28 483.09 L 143.36 482.88 L 145.86 482.98 L 147.90 483.33 L 150.71 484.27 L 152.66 485.37 L 154.22 486.67 L 155.11 487.70 L 155.81 488.81 L 155.06 487.55 L 154.14 486.35 L 152.58 484.77 L 150.66 483.33 L 147.99 481.98 L 146.05 481.32 L 143.72 480.88 L 140.93 480.68 L 138.16 480.80 L 134.89 481.34 L 131.03 482.37 L 128.44 477.25 L 125.79 473.17 L 123.07 469.96 L 119.96 467.13 L 116.89 464.97 L 113.84 463.41 L 110.61 462.23 L 107.52 461.47 L 104.56 461.10 L 100.16 461.04 L 96.43 461.44 L 93.00 462.14 L 90.66 462.82 L 88.47 463.63 Z" fill="url(#linearGradient-5)" fill-opacity="0.2" fill-rule="nonzero" group-id="1,7" id="路径_73" node-id="39" stroke="none" target-height="29.411682" target-width="67.335236" target-x="88.47006" target-y="461.04428"></path></g><path d="M 299.32 317.71 L 299.32 317.71 C 319.11 317.71 335.16 333.76 335.16 353.55 L 335.16 434.04 L 263.47 434.04 L 263.47 353.55 C 263.47 333.76 279.52 317.71 299.32 317.71 Z" fill="#d7dbe1" fill-rule="nonzero" group-id="1" id="矩形_338" node-id="40" stroke="none" target-height="116.32999" target-width="71.69101" target-x="263.47" target-y="317.708"></path><path d="M 301.09 317.77 C 301.09 317.77 324.25 319.91 324.92 365.85 C 325.58 411.79 329.56 654.72 329.56 654.72 C 329.56 654.72 328.61 708.64 370.88 705.43 C 413.14 702.22 633.63 691.23 633.63 691.23 L 622.81 408.95 C 622.81 408.95 626.52 321.25 559.95 318.10 C 531.59 317.50 301.09 317.77 301.09 317.77 Z" fill="url(#linearGradient-6)" fill-rule="nonzero" group-id="1" id="路径_99" node-id="41" stroke="none" target-height="391.138" target-width="332.54102" target-x="301.091" target-y="317.498"></path><path d="M 388.03 703.80 C 388.03 703.80 408.96 704.11 437.46 660.47 C 465.95 616.83 502.01 651.68 502.01 651.68 L 523.52 697.13 L 388.03 703.80 Z" fill="#d7dbe1" fill-rule="nonzero" group-id="1" id="路径_100" node-id="42" stroke="none" target-height="87.27399" target-width="135.49698" target-x="388.027" target-y="616.831"></path><path d="M 478.73 639.57 C 478.73 639.57 518.44 645.25 515.41 723.13 C 596.93 721.91 804.00 723.13 804.00 723.13 C 804.00 723.13 801.56 641.97 750.85 639.57 C 700.13 637.17 478.73 639.57 478.73 639.57 Z" fill="url(#linearGradient-7)" fill-rule="nonzero" group-id="1" id="路径_101" node-id="43" stroke="none" target-height="85.958984" target-width="325.27597" target-x="478.725" target-y="637.168"></path><path d="M 793.09 601.60 L 781.80 609.80 L 780.33 610.67 L 778.83 611.24 L 777.25 611.53 L 774.88 611.46 L 772.59 610.79 L 771.19 610.03 L 769.93 609.02 L 768.80 607.74 L 751.71 584.21 L 750.67 582.37 L 750.08 580.46 L 749.93 578.46 L 750.21 576.46 L 750.91 574.59 L 752.06 572.82 L 735.14 549.54 L 730.40 551.87 L 725.63 553.79 L 720.80 555.31 L 715.92 556.44 L 710.95 557.20 L 706.01 557.59 L 701.08 557.61 L 696.17 557.27 L 689.68 556.25 L 683.36 554.61 L 677.20 552.36 L 672.73 550.28 L 668.43 547.87 L 664.30 545.14 L 660.32 542.06 L 656.60 538.70 L 653.12 535.03 L 649.87 531.04 L 646.86 526.70 L 644.20 522.13 L 641.95 517.50 L 640.10 512.80 L 638.63 508.01 L 637.52 503.10 L 636.79 498.20 L 636.43 493.29 L 636.43 488.36 L 636.99 481.81 L 638.18 475.40 L 640.00 469.09 L 641.77 464.49 L 643.87 460.03 L 646.31 455.72 L 649.10 451.54 L 652.19 447.59 L 655.61 443.86 L 659.37 440.35 L 663.48 437.03 L 667.85 434.07 L 672.32 431.50 L 676.88 429.32 L 681.56 427.53 L 686.38 426.08 L 691.21 425.00 L 696.09 424.30 L 701.00 423.96 L 707.57 424.06 L 714.05 424.80 L 720.48 426.18 L 725.19 427.62 L 729.78 429.40 L 734.25 431.54 L 738.62 434.03 L 742.77 436.84 L 746.73 439.98 L 750.50 443.49 L 754.09 447.36 L 757.36 451.52 L 760.23 455.79 L 762.72 460.19 L 764.84 464.73 L 766.62 469.44 L 768.02 474.19 L 769.07 479.00 L 769.75 483.88 L 770.10 490.44 L 769.82 496.96 L 768.90 503.46 L 767.79 508.26 L 766.33 512.96 L 764.51 517.58 L 762.33 522.11 L 759.82 526.45 L 756.96 530.61 L 753.72 534.62 L 750.11 538.47 L 767.12 561.88 L 769.16 561.34 L 771.15 561.25 L 773.13 561.60 L 774.99 562.37 L 776.63 563.51 L 778.06 565.07 L 795.15 588.60 L 796.02 590.06 L 796.59 591.57 L 796.88 593.14 L 796.81 595.52 L 796.14 597.81 L 795.38 599.21 L 794.37 600.47 L 793.09 601.60 Z M 687.83 469.58 L 685.07 471.89 L 682.74 474.44 L 680.80 477.23 L 679.24 480.25 L 678.10 483.39 L 677.36 486.66 L 677.05 490.00 L 677.17 493.33 L 677.72 496.69 L 678.70 499.94 L 680.13 503.08 L 682.04 506.14 L 684.36 508.90 L 686.90 511.24 L 689.69 513.17 L 692.72 514.73 L 695.85 515.87 L 699.12 516.61 L 702.46 516.92 L 705.79 516.80 L 709.15 516.25 L 712.40 515.27 L 715.55 513.84 L 718.60 511.93 L 721.36 509.62 L 723.70 507.07 L 725.63 504.28 L 727.19 501.26 L 728.34 498.12 L 729.07 494.85 L 729.38 491.51 L 729.27 488.18 L 728.72 484.82 L 727.74 481.57 L 726.30 478.43 L 724.39 475.37 L 722.08 472.61 L 719.53 470.28 L 716.74 468.34 L 713.71 466.79 L 710.58 465.65 L 707.31 464.91 L 703.97 464.60 L 700.64 464.72 L 697.28 465.26 L 694.03 466.24 L 690.89 467.67 L 687.83 469.58 Z" fill="url(#linearGradient-8)" fill-rule="nonzero" group-id="1,8" id="路径_8757" node-id="44" stroke="none" target-height="187.57306" target-width="160.45422" target-x="636.42737" target-y="423.95795"></path><path d="M 184.12 286.76 C 167.36 286.76 153.77 272.90 153.77 255.80 C 153.77 238.70 167.36 224.84 184.12 224.84 C 187.98 224.84 191.81 225.59 195.39 227.05 C 195.33 226.32 195.30 225.59 195.30 224.84 C 195.11 215.02 200.24 205.85 208.73 200.88 C 217.21 195.91 227.71 195.91 236.19 200.88 C 244.67 205.85 249.80 215.02 249.61 224.84 C 249.62 228.43 248.94 231.98 247.61 235.31 C 251.81 232.73 256.66 231.36 261.59 231.36 C 276.67 231.67 288.74 243.98 288.74 259.06 C 288.74 274.14 276.67 286.45 261.59 286.76 L 184.12 286.76 Z" fill="url(#linearGradient-9)" fill-opacity="0.2" fill-rule="nonzero" group-id="1" id="联合_63" node-id="45" stroke="none" target-height="90.84238" target-width="134.9683" target-x="153.769" target-y="195.91443"></path><path d="M 384.93 433.85 L 563.81 433.85 C 574.85 433.85 583.81 442.80 583.81 453.85 L 583.81 453.85 C 583.81 464.89 574.85 473.85 563.81 473.85 L 384.93 473.85 C 373.89 473.85 364.93 464.89 364.93 453.85 L 364.93 453.85 C 364.93 442.80 373.89 433.85 384.93 433.85 Z" fill="#ffffff" fill-rule="nonzero" group-id="1" id="矩形_383" node-id="46" stroke="none" target-height="40" target-width="218.87503" target-x="364.934" target-y="433.846"></path><path d="M 384.93 514.49 L 474.93 514.49 C 485.98 514.49 494.93 523.44 494.93 534.49 L 494.93 534.49 C 494.93 545.53 485.98 554.49 474.93 554.49 L 384.93 554.49 C 373.89 554.49 364.93 545.53 364.93 534.49 L 364.93 534.49 C 364.93 523.44 373.89 514.49 384.93 514.49 Z" fill="#ffffff" fill-rule="nonzero" group-id="1" id="矩形_384" node-id="47" stroke="none" target-height="40" target-width="130" target-x="364.934" target-y="514.488"></path></g></svg>